<svg width="35" height="36" viewBox="0 0 35 36" fill="none" xmlns="http://www.w3.org/2000/svg">
<path d="M14.9677 29.9353C18.2886 29.9346 21.5138 28.8229 24.1297 26.7771L32.3545 35.0019L35 32.3563L26.7753 24.1316C28.8221 21.5154 29.9345 18.2894 29.9353 14.9677C29.9353 6.71487 23.2205 0 14.9677 0C6.71487 0 0 6.71487 0 14.9677C0 23.2204 6.71487 29.9353 14.9677 29.9353ZM14.9677 3.74191C21.1587 3.74191 26.1934 8.77666 26.1934 14.9677C26.1934 21.1587 21.1587 26.1934 14.9677 26.1934C8.77666 26.1934 3.74191 21.1587 3.74191 14.9677C3.74191 8.77666 8.77666 3.74191 14.9677 3.74191Z" fill="black"/>
<path d="M17.6094 12.3221C18.3185 13.0331 18.7096 13.9723 18.7096 14.9677H22.4515C22.4531 13.9843 22.2599 13.0104 21.8829 12.1023C21.5058 11.1941 20.9526 10.3696 20.255 9.67659C17.4224 6.8477 12.5111 6.8477 9.68033 9.67659L12.3221 12.3259C13.7441 10.9077 16.195 10.9114 17.6094 12.3221Z" fill="black"/>
</svg>
