<svg width="500" height="500" viewBox="0 0 500 500" fill="none" xmlns="http://www.w3.org/2000/svg">
<path d="M249.999 0C316.303 0 379.892 26.3392 426.776 73.2233C473.66 120.107 499.999 183.696 499.999 250C499.999 316.304 473.66 379.893 426.776 426.777C379.892 473.661 316.303 500 249.999 500C183.695 500 120.108 473.661 73.2236 426.777C26.3395 379.893 0 316.304 0 250C0 183.696 26.3395 120.107 73.2236 73.2233C120.108 26.3392 183.695 0 249.999 0ZM218.856 299.321L163.321 243.75C161.33 241.759 158.967 240.18 156.365 239.102C153.764 238.025 150.976 237.47 148.16 237.47C145.345 237.47 142.556 238.025 139.955 239.102C137.354 240.18 134.99 241.759 132.999 243.75C128.978 247.771 126.72 253.224 126.72 258.911C126.72 264.597 128.978 270.051 132.999 274.071L203.714 344.786C205.699 346.787 208.06 348.375 210.662 349.459C213.264 350.542 216.055 351.1 218.874 351.1C221.693 351.1 224.483 350.542 227.085 349.459C229.687 348.375 232.049 346.787 234.034 344.786L380.464 198.321C382.481 196.339 384.087 193.976 385.187 191.37C386.286 188.764 386.859 185.966 386.872 183.137C386.885 180.309 386.338 177.505 385.263 174.889C384.187 172.273 382.604 169.896 380.605 167.894C378.606 165.893 376.23 164.307 373.615 163.229C371 162.15 368.198 161.599 365.369 161.609C362.54 161.619 359.741 162.189 357.134 163.286C354.526 164.383 352.162 165.985 350.177 168L218.856 299.321Z" fill="white"/>
</svg>
